<?xml version="1.0" encoding="utf-8"?>
<!-- Generator: Adobe Illustrator 24.0.1, SVG Export Plug-In . SVG Version: 6.00 Build 0)  -->
<svg version="1.1" id="Layer_1" xmlns="http://www.w3.org/2000/svg" xmlns:xlink="http://www.w3.org/1999/xlink" x="0px" y="0px"
	 viewBox="0 0 128 128" style="enable-background:new 0 0 128 128;" xml:space="preserve">
<style type="text/css">
	.st0{fill:#FFFFFF;}
</style>
<path class="st0" d="M28,115.8h62.2l-3-9.6l7.1,6.1l6.5,5.8l11.9,9.8V34.7c-0.3-5.8-5.3-10.7-11.6-10.7L28,24
	c-6.2,0-11.3,4.9-11.3,10.7v70.4C16.8,111.2,21.8,115.8,28,115.8z M74,48.6l-0.1,0.1L74,48.6L74,48.6z M40.7,54.1
	c8-5.8,15.4-5.5,15.4-5.5l0.6,0.6c-9.8,2.3-14.2,6.7-14.2,6.7s1.2-0.6,3.3-1.5c13.2-5.1,27.6-4.8,40.9,1.7c0,0-4.4-4.1-13.6-6.7
	l0.8-0.8c1.3,0,8,0.2,15.2,5.5c0,0,8,13.6,8,30.4c-0.3-0.3-5,7.2-17.2,7.5c0,0-2.1-2.3-3.5-4.3c7.1-2,9.8-6.1,9.8-6.1
	c-2.3,1.5-4.5,2.3-6.2,3.2c-2.7,1.2-5.3,1.7-8,2.3c-12.6,2-19.6-1.4-26.3-4.1l-2.3-1.2c0,0,2.7,4.1,9.5,6.1c-1.8,2-3.6,4.3-3.6,4.3
	c-12.2-0.3-16.6-7.8-16.6-7.8C32.7,67.7,40.7,54.1,40.7,54.1z"/>
<path class="st0" d="M74.9,79.4c3.2,0,5.9-2.6,5.9-5.9c0-3.2-2.6-5.9-5.9-5.9v0c-3.2,0-5.9,2.6-5.9,5.9C69,76.7,71.6,79.4,74.9,79.4
	z"/>
<path class="st0" d="M54.7,79.4c3.2,0,5.9-2.6,5.9-5.9c0-3.2-2.6-5.9-5.9-5.9l0,0c-3.2,0-5.9,2.6-5.9,5.9
	C48.8,76.7,51.4,79.4,54.7,79.4z"/>
</svg>
