<?xml version="1.0" encoding="utf-8"?>
<!-- Generator: Adobe Illustrator 24.0.1, SVG Export Plug-In . SVG Version: 6.00 Build 0)  -->
<svg version="1.1" id="Layer_1" xmlns="http://www.w3.org/2000/svg" xmlns:xlink="http://www.w3.org/1999/xlink" x="0px" y="0px"
	 viewBox="0 0 128 128" style="enable-background:new 0 0 128 128;" xml:space="preserve">
<style type="text/css">
	.st0{fill:#FFFFFF;}
</style>
<path class="st0" d="M65.4,119.9c17.7,0,42.5,0.4,51.5-17.3c3.4-6.8,4.2-14.6,4.2-22h0c0-9.7-2.7-19-9.3-26.5
	c1.2-3.6,1.8-7.4,1.8-11.2c0-5-1.1-7.5-3.5-12c-10.6,0-17.5,2-25.6,8.2c-6.2-1.5-12.7-2.1-19.1-2.1c-7.1,0-14.2,0.7-21.1,2.3
	c-8.2-6.3-15.1-8.3-25.8-8.3c-2.3,4.5-3.5,7-3.5,12c0,3.8,0.6,7.6,1.8,11.3C10.3,61.7,7,70.8,7,80.6c0,7.4,1.3,15.3,4.8,22
	C21.2,120.6,47.4,119.9,65.4,119.9z M40.3,73.1c4.5,0,8.9,0.8,13.3,1.4c16.2,2.4,24.8-1.4,34.7-1.4c11.1,0,17.5,9,17.5,19.2
	c0,20.4-19.1,23.5-35.8,23.5H58.5c-16.6,0-35.7-3.1-35.7-23.5C22.8,82.1,29.1,73.1,40.3,73.1z"/>
<path class="st0" d="M86.3,104.8c5.6,0,8-7.7,8-12.5s-2.4-12.5-8-12.5s-8,7.7-8,12.5S80.6,104.8,86.3,104.8z"/>
<path class="st0" d="M42.6,104.8c5.6,0,8-7.7,8-12.5c0-4.7-2.4-12.5-8-12.5s-8,7.7-8,12.5C34.6,97.1,37,104.8,42.6,104.8z"/>
</svg>
