<svg width="1840" height="840" viewBox="0 0 1840 840" fill="none" xmlns="http://www.w3.org/2000/svg">
<g clip-path="url(#clip0)">
<path d="M1832.51 695.011L1743.5 695.011L1701.81 746.926L1546.76 746.926L1506.01 711.381L906.884 710.913L509.654 710.913L464.684 758.619" stroke="#12F8F8" stroke-width="4" stroke-miterlimit="10"/>
<path d="M1800.65 785.746L1681.67 785.746L1652.03 746.927" stroke="#12F8F8" stroke-width="4" stroke-miterlimit="10"/>
<path d="M1572.99 821.292L1453.08 821.292L1416.54 782.004L1232.91 782.004L1194.5 729.621L906.884 729.621L621.14 729.621L561.181 788.552" stroke="#12F8F8" stroke-width="4" stroke-miterlimit="10"/>
<path d="M1277.88 832.517L1277.88 811.938L1202 811.938L1147.66 748.33L906.884 748.33L737.312 748.33L701.711 785.746L648.31 785.746L624.888 808.196L603.34 808.196" stroke="#12F8F8" stroke-width="4" stroke-miterlimit="10"/>
<path d="M1147.66 474.254L1147.66 541.604L1106.1 597.728L1107.5 692.205L906.884 692.205L576.171 692.205L547.128 665.078L468.432 665.078L447.821 686.592L385.051 686.592" stroke="#12F8F8" stroke-width="4" stroke-miterlimit="10"/>
<path d="M1147.66 227.305L1147.66 386.325L1105.5 440.579L1106.44 597.728" stroke="#12F8F8" stroke-width="4" stroke-miterlimit="10"/>
<path d="M1120.49 173.051L1085.82 173.051L1085.82 346.103L1051.16 376.036L1051.16 673.497L906.884 673.497L738.248 673.497L692.342 626.726L606.151 626.726L582.729 603.341L509.654 603.341" stroke="#12F8F8" stroke-width="4" stroke-miterlimit="10"/>
<path d="M1052.1 74.833L1052.1 111.314L1069.9 149.666L1069.9 336.748L1051.16 355.457L1051.16 376.036" stroke="#12F8F8" stroke-width="4" stroke-miterlimit="10"/>
<path d="M983.707 7.48315L983.707 112.249L1017.43 169.309L1016.5 654.788L752.301 654.788L692.342 596.793L652.057 596.793L652.057 568.73" stroke="#12F8F8" stroke-width="4" stroke-miterlimit="10"/>
<path d="M960.285 230.111L990.265 230.111L990.265 276.882L1017.43 303.074" stroke="#12F8F8" stroke-width="4" stroke-miterlimit="10"/>
<path d="M639.185 626.726L566.802 550.022L465.621 550.022L446.884 536.927L402.851 536.927" stroke="#12F8F8" stroke-width="4" stroke-miterlimit="10"/>
<path d="M442.2 589.309L460.937 589.309L485.295 564.989L580.602 564.989" stroke="#12F8F8" stroke-width="4" stroke-miterlimit="10"/>
<path d="M586.477 654.789L719.886 654.789" stroke="#12F8F8" stroke-width="4" stroke-miterlimit="10"/>
<path d="M225.784 758.619L244.521 758.619L271.69 729.621L368.187 729.621L411.058 686.593" stroke="#12F8F8" stroke-width="4" stroke-miterlimit="10"/>
<path d="M181.752 692.205L262.322 692.205L297.923 729.621" stroke="#12F8F8" stroke-width="4" stroke-miterlimit="10"/>
<path d="M603.34 788.552L631.446 758.619L727.943 758.619" stroke="#12F8F8" stroke-width="4" stroke-miterlimit="10"/>
<path d="M459.063 781.069L511.528 781.069L540.57 752.071L561.181 752.071" stroke="#12F8F8" stroke-width="4" stroke-miterlimit="10"/>
<path d="M6.55812 618.307L247.332 618.307L281.059 654.788L357.882 654.788L370.998 667.884L402.851 667.884" stroke="#12F8F8" stroke-width="4" stroke-miterlimit="10"/>
<path d="M364.44 635.145L453.442 635.145L485.689 665.078" stroke="#12F8F8" stroke-width="4" stroke-miterlimit="10"/>
<path d="M227.189 667.417L198.147 667.417L152.709 618.307" stroke="#12F8F8" stroke-width="4" stroke-miterlimit="10"/>
<path d="M335.866 574.811L309.633 574.811L289.022 555.167L133.503 555.167L74.9774 618.307" stroke="#12F8F8" stroke-width="4" stroke-miterlimit="10"/>
<path d="M335.397 555.635L310.102 555.635L295.112 538.797L169.572 538.797" stroke="#12F8F8" stroke-width="4" stroke-miterlimit="10"/>
<path d="M262.322 635.145L315.723 634.677L334.46 615.501L434.705 614.566L453.442 635.145" stroke="#12F8F8" stroke-width="4" stroke-miterlimit="10"/>
<path d="M1840 702.494L1840 687.528L1825.01 687.528L1825.01 702.494L1840 702.494Z" fill="#FF00FF"/>
<path d="M1808.15 793.23L1808.15 778.263L1793.16 778.263L1793.16 793.23L1808.15 793.23Z" fill="#FF00FF"/>
<path d="M1285.38 840L1285.38 825.033L1270.39 825.033L1270.39 840L1285.38 840Z" fill="#FF00FF"/>
<path d="M1580.49 828.775L1580.49 813.809L1565.5 813.809L1565.5 828.775L1580.49 828.775Z" fill="#FF00FF"/>
<path d="M967.78 237.595L967.78 222.628L952.79 222.628L952.79 237.595L967.78 237.595Z" fill="#FF00FF"/>
<path d="M659.552 579.955L659.552 564.989L644.562 564.989L644.562 579.955L659.552 579.955Z" fill="#FF00FF"/>
<path d="M410.346 544.41L410.346 529.443L395.356 529.443L395.356 544.41L410.346 544.41Z" fill="#FF00FF"/>
<path d="M449.694 596.793L449.694 581.826L434.705 581.826L434.705 596.793L449.694 596.793Z" fill="#FF00FF"/>
<path d="M517.149 610.824L517.149 595.857L502.159 595.857L502.159 610.824L517.149 610.824Z" fill="#FF00FF"/>
<path d="M472.179 766.102L472.179 751.136L457.189 751.136L457.189 766.102L472.179 766.102Z" fill="#FF00FF"/>
<path d="M466.558 788.552L466.558 773.586L451.568 773.586L451.568 788.552L466.558 788.552Z" fill="#FF00FF"/>
<path d="M568.676 759.555L568.676 744.588L553.686 744.588L553.686 759.555L568.676 759.555Z" fill="#FF00FF"/>
<path d="M593.971 662.272L593.971 647.305L578.982 647.305L578.982 662.272L593.971 662.272Z" fill="#FF00FF"/>
<path d="M593.971 662.272L593.971 647.305L578.982 647.305L578.982 662.272L593.971 662.272Z" fill="#FF00FF"/>
<path d="M593.971 718.396L593.971 703.43L578.982 703.43L578.982 718.396L593.971 718.396Z" fill="#FF00FF"/>
<path d="M568.676 796.036L568.676 781.069L553.686 781.069L553.686 796.036L568.676 796.036Z" fill="#FF00FF"/>
<path d="M610.835 796.036L610.835 781.069L595.845 781.069L595.845 796.036L610.835 796.036Z" fill="#FF00FF"/>
<path d="M610.835 816.615L610.835 801.648L595.845 801.648L595.845 816.615L610.835 816.615Z" fill="#FF00FF"/>
<path d="M410.346 675.368L410.346 660.401L395.356 660.401L395.356 675.368L410.346 675.368Z" fill="#FF00FF"/>
<path d="M392.546 694.076L392.546 679.109L377.556 679.109L377.556 694.076L392.546 694.076Z" fill="#FF00FF"/>
<path d="M371.935 642.628L371.935 627.661L356.945 627.661L356.945 642.628L371.935 642.628Z" fill="#FF00FF"/>
<path d="M342.892 581.826L342.892 566.86L327.902 566.86L327.902 581.826L342.892 581.826Z" fill="#FF00FF"/>
<path d="M234.216 675.368L234.216 660.401L219.226 660.401L219.226 675.368L234.216 675.368Z" fill="#FF00FF"/>
<path d="M233.279 766.102L233.279 751.136L218.289 751.136L218.289 766.102L233.279 766.102Z" fill="#FF00FF"/>
<path d="M189.246 699.688L189.246 684.722L174.257 684.722L174.257 699.688L189.246 699.688Z" fill="#FF00FF"/>
<path d="M177.067 546.281L177.067 531.314L162.078 531.314L162.078 546.281L177.067 546.281Z" fill="#FF00FF"/>
<path d="M14.99 625.791L14.99 610.824L0 610.824L-6.54214e-07 625.791L14.99 625.791Z" fill="#FF00FF"/>
<path d="M342.892 563.118L342.892 548.151L327.902 548.151L327.902 563.118L342.892 563.118Z" fill="#FF00FF"/>
<path d="M1155.15 234.788L1155.15 219.822L1140.16 219.822L1140.16 234.788L1155.15 234.788Z" fill="#FF00FF"/>
<path d="M1155.15 481.737L1155.15 466.771L1140.16 466.771L1140.16 481.737L1155.15 481.737Z" fill="#FF00FF"/>
<path d="M1127.98 180.534L1127.98 165.568L1112.99 165.568L1112.99 180.534L1127.98 180.534Z" fill="#FF00FF"/>
<path d="M1059.59 82.3162L1059.59 67.3496L1044.6 67.3496L1044.6 82.3162L1059.59 82.3162Z" fill="#FF00FF"/>
<path d="M991.202 14.9666L991.202 0L976.212 -6.55225e-07L976.212 14.9666L991.202 14.9666Z" fill="#FF00FF"/>
<path d="M554.445 760.163C554.445 755.532 554.445 751.445 554.445 746.758C559.064 746.758 563.402 746.758 568.058 746.758C568.058 751.342 568.058 755.439 568.058 760.163C563.589 760.163 559.261 760.163 554.445 760.163Z" fill="#FF00FF" stroke="#FF00FF" stroke-miterlimit="10"/>
<path d="M221.868 675.555C221.868 670.812 221.868 666.706 221.868 662.113C226.374 662.113 230.6 662.113 235.275 662.113C235.275 666.565 235.275 670.784 235.275 675.555C230.853 675.555 226.627 675.555 221.868 675.555Z" fill="#FF00FF" stroke="#FF00FF" stroke-miterlimit="10"/>
</g>
<defs>
<clipPath id="clip0">
<rect width="840" height="1840" fill="white" transform="translate(1840) rotate(90)"/>
</clipPath>
</defs>
</svg>
