<svg width="1839" height="842" viewBox="0 0 1839 842" fill="none" xmlns="http://www.w3.org/2000/svg">
<g clip-path="url(#clip0)">
<path d="M7.49084 145.334L96.4445 145.334L138.112 93.2953L293.079 93.2953L333.81 128.926L932.609 129.394L1329.62 129.394L1374.57 81.5748" stroke="#12F8F8" stroke-width="4" stroke-miterlimit="10"/>
<path d="M39.3269 54.3832L158.244 54.3832L187.87 93.2952" stroke="#12F8F8" stroke-width="4" stroke-miterlimit="10"/>
<path d="M266.861 18.7527L386.714 18.7527L423.232 58.1336L606.758 58.1336L645.148 110.641L932.609 110.641L1218.2 110.641L1278.12 51.5701" stroke="#12F8F8" stroke-width="4" stroke-miterlimit="10"/>
<path d="M561.813 7.50116L561.813 28.1292L637.657 28.1292L691.966 91.8887L932.609 91.8887L1102.09 91.8887L1137.67 54.3831L1191.04 54.3831L1214.45 31.8798L1235.99 31.8798" stroke="#12F8F8" stroke-width="4" stroke-miterlimit="10"/>
<path d="M691.966 366.617L691.966 299.107L733.503 242.849L732.098 148.147L932.609 148.147L1263.14 148.147L1292.17 175.339L1370.82 175.339L1391.42 153.773L1454.16 153.773" stroke="#12F8F8" stroke-width="4" stroke-miterlimit="10"/>
<path d="M691.966 614.154L691.966 454.755L734.102 400.372L733.165 242.849" stroke="#12F8F8" stroke-width="4" stroke-miterlimit="10"/>
<path d="M719.12 668.537L753.765 668.537L753.765 495.074L788.41 465.069L788.41 166.9L932.609 166.9L1101.15 166.9L1147.03 213.782L1233.18 213.782L1256.59 237.223L1329.62 237.223" stroke="#12F8F8" stroke-width="4" stroke-miterlimit="10"/>
<path d="M787.474 766.989L787.474 730.421L769.683 691.978L769.683 504.45L788.41 485.697L788.41 465.069" stroke="#12F8F8" stroke-width="4" stroke-miterlimit="10"/>
<path d="M855.828 834.499L855.828 729.483L822.119 672.287L823.056 185.653L1087.11 185.653L1147.03 243.786L1187.3 243.786L1187.3 271.915" stroke="#12F8F8" stroke-width="4" stroke-miterlimit="10"/>
<path d="M879.237 611.341L849.273 611.341L849.273 564.459L822.119 538.205" stroke="#12F8F8" stroke-width="4" stroke-miterlimit="10"/>
<path d="M1200.16 213.782L1272.51 290.668L1373.63 290.668L1392.36 303.795L1436.37 303.795" stroke="#12F8F8" stroke-width="4" stroke-miterlimit="10"/>
<path d="M1397.04 251.287L1378.31 251.287L1353.97 275.666L1258.71 275.666" stroke="#12F8F8" stroke-width="4" stroke-miterlimit="10"/>
<path d="M1252.84 185.653L1119.51 185.653" stroke="#12F8F8" stroke-width="4" stroke-miterlimit="10"/>
<path d="M1613.34 81.5747L1594.61 81.5747L1567.46 110.642L1471.01 110.642L1428.17 153.773" stroke="#12F8F8" stroke-width="4" stroke-miterlimit="10"/>
<path d="M1657.35 148.147L1576.82 148.147L1541.24 110.641" stroke="#12F8F8" stroke-width="4" stroke-miterlimit="10"/>
<path d="M1235.99 51.5703L1207.9 81.5747L1111.45 81.5747" stroke="#12F8F8" stroke-width="4" stroke-miterlimit="10"/>
<path d="M1380.19 59.0714L1327.75 59.0714L1298.72 88.1382L1278.12 88.1382" stroke="#12F8F8" stroke-width="4" stroke-miterlimit="10"/>
<path d="M1832.45 222.22L1591.8 222.22L1558.09 185.653L1481.31 185.653L1468.2 172.526L1436.37 172.526" stroke="#12F8F8" stroke-width="4" stroke-miterlimit="10"/>
<path d="M1474.76 205.343L1385.8 205.343L1353.58 175.339" stroke="#12F8F8" stroke-width="4" stroke-miterlimit="10"/>
<path d="M1611.93 172.994L1640.96 172.994L1686.37 222.22" stroke="#12F8F8" stroke-width="4" stroke-miterlimit="10"/>
<path d="M1503.32 265.821L1529.53 265.821L1550.13 285.511L1705.57 285.511L1764.06 222.221" stroke="#12F8F8" stroke-width="4" stroke-miterlimit="10"/>
<path d="M1503.79 285.042L1529.07 285.042L1544.05 301.92L1669.52 301.92" stroke="#12F8F8" stroke-width="4" stroke-miterlimit="10"/>
<path d="M1576.82 205.343L1523.45 205.812L1504.72 225.033L1404.53 225.971L1385.8 205.343" stroke="#12F8F8" stroke-width="4" stroke-miterlimit="10"/>
<path d="M1.78899e-07 137.833L0 152.835L14.9817 152.835L14.9817 137.833L1.78899e-07 137.833Z" fill="#FF00FF"/>
<path d="M31.8361 46.882L31.8361 61.8843L46.8177 61.8843L46.8177 46.882L31.8361 46.882Z" fill="#FF00FF"/>
<path d="M554.322 -6.10352e-05L554.322 15.0022L569.303 15.0022L569.303 -6.08565e-05L554.322 -6.10352e-05Z" fill="#FF00FF"/>
<path d="M259.37 11.2517L259.37 26.2539L274.352 26.2539L274.352 11.2517L259.37 11.2517Z" fill="#FF00FF"/>
<path d="M871.746 603.84L871.746 618.842L886.728 618.842L886.728 603.84L871.746 603.84Z" fill="#FF00FF"/>
<path d="M1179.81 260.664L1179.81 275.666L1194.79 275.666L1194.79 260.664L1179.81 260.664Z" fill="#FF00FF"/>
<path d="M1428.88 296.294L1428.88 311.296L1443.86 311.296L1443.86 296.294L1428.88 296.294Z" fill="#FF00FF"/>
<path d="M1389.55 243.786L1389.55 258.788L1404.53 258.788L1404.53 243.786L1389.55 243.786Z" fill="#FF00FF"/>
<path d="M1322.13 229.722L1322.13 244.724L1337.11 244.724L1337.11 229.722L1322.13 229.722Z" fill="#FF00FF"/>
<path d="M1367.08 74.0735L1367.08 89.0757L1382.06 89.0757L1382.06 74.0735L1367.08 74.0735Z" fill="#FF00FF"/>
<path d="M1372.7 51.5703L1372.7 66.5725L1387.68 66.5725L1387.68 51.5703L1372.7 51.5703Z" fill="#FF00FF"/>
<path d="M1270.63 80.637L1270.63 95.6392L1285.61 95.6392L1285.61 80.637L1270.63 80.637Z" fill="#FF00FF"/>
<path d="M1245.35 178.151L1245.35 193.154L1260.33 193.154L1260.33 178.151L1245.35 178.151Z" fill="#FF00FF"/>
<path d="M1245.35 178.151L1245.35 193.154L1260.33 193.154L1260.33 178.151L1245.35 178.151Z" fill="#FF00FF"/>
<path d="M1245.35 121.893L1245.35 136.896L1260.33 136.896L1260.33 121.893L1245.35 121.893Z" fill="#FF00FF"/>
<path d="M1270.63 44.069L1270.63 59.0713L1285.61 59.0713L1285.61 44.069L1270.63 44.069Z" fill="#FF00FF"/>
<path d="M1228.5 44.069L1228.5 59.0713L1243.48 59.0713L1243.48 44.069L1228.5 44.069Z" fill="#FF00FF"/>
<path d="M1228.5 23.4411L1228.5 38.4434L1243.48 38.4434L1243.48 23.4411L1228.5 23.4411Z" fill="#FF00FF"/>
<path d="M1428.88 165.025L1428.88 180.027L1443.86 180.027L1443.86 165.025L1428.88 165.025Z" fill="#FF00FF"/>
<path d="M1446.67 146.272L1446.67 161.274L1461.65 161.274L1461.65 146.272L1446.67 146.272Z" fill="#FF00FF"/>
<path d="M1467.27 197.842L1467.27 212.844L1482.25 212.844L1482.25 197.842L1467.27 197.842Z" fill="#FF00FF"/>
<path d="M1496.29 258.789L1496.29 273.791L1511.28 273.791L1511.28 258.789L1496.29 258.789Z" fill="#FF00FF"/>
<path d="M1604.91 165.025L1604.91 180.027L1619.89 180.027L1619.89 165.025L1604.91 165.025Z" fill="#FF00FF"/>
<path d="M1605.85 74.0735L1605.85 89.0757L1620.83 89.0757L1620.83 74.0735L1605.85 74.0735Z" fill="#FF00FF"/>
<path d="M1649.86 140.646L1649.86 155.648L1664.84 155.648L1664.84 140.646L1649.86 140.646Z" fill="#FF00FF"/>
<path d="M1662.03 294.419L1662.03 309.421L1677.01 309.421L1677.01 294.419L1662.03 294.419Z" fill="#FF00FF"/>
<path d="M1824.02 214.719L1824.02 229.722L1839 229.722L1839 214.719L1824.02 214.719Z" fill="#FF00FF"/>
<path d="M1496.29 277.541L1496.29 292.543L1511.28 292.543L1511.28 277.541L1496.29 277.541Z" fill="#FF00FF"/>
<path d="M684.475 606.653L684.475 621.655L699.457 621.655L699.457 606.653L684.475 606.653Z" fill="#FF00FF"/>
<path d="M684.475 359.116L684.475 374.118L699.457 374.118L699.457 359.116L684.475 359.116Z" fill="#FF00FF"/>
<path d="M711.629 661.036L711.629 676.038L726.611 676.038L726.611 661.036L711.629 661.036Z" fill="#FF00FF"/>
<path d="M779.983 759.488L779.983 774.49L794.965 774.49L794.965 759.488L779.983 759.488Z" fill="#FF00FF"/>
<path d="M848.337 826.998L848.337 842L863.319 842L863.319 826.998L848.337 826.998Z" fill="#FF00FF"/>
<path d="M1284.86 80.0275C1284.86 84.6688 1284.86 88.7663 1284.86 93.4639C1280.24 93.4639 1275.9 93.4639 1271.25 93.4639C1271.25 88.8694 1271.25 84.7625 1271.25 80.0275C1275.72 80.0275 1280.04 80.0275 1284.86 80.0275Z" fill="#FF00FF" stroke="#FF00FF" stroke-miterlimit="10"/>
<path d="M1617.25 164.837C1617.25 169.591 1617.25 173.707 1617.25 178.311C1612.75 178.311 1608.53 178.311 1603.85 178.311C1603.85 173.848 1603.85 169.619 1603.85 164.837C1608.27 164.837 1612.5 164.837 1617.25 164.837Z" fill="#FF00FF" stroke="#FF00FF" stroke-miterlimit="10"/>
</g>
<defs>
<clipPath id="clip0">
<rect width="842" height="1839" fill="white" transform="translate(0 842) rotate(-90)"/>
</clipPath>
</defs>
</svg>
