<svg width="198" height="140" viewBox="0 0 198 140" fill="none" xmlns="http://www.w3.org/2000/svg">
<g clip-path="url(#clip0)">
<path d="M102.571 117.143H93.4286V137.714C93.4286 138.977 94.452 140 95.7143 140H100.286C101.548 140 102.571 138.977 102.571 137.714V117.143Z" fill="black"/>
<path d="M98 94.2857H111.714C112.977 94.2857 114 93.2622 114 92C114 90.7377 112.977 89.7143 111.714 89.7143H98C96.7377 89.7143 95.7143 88.6908 95.7143 87.4285C95.7143 86.1663 96.7377 85.1428 98 85.1428H109.429C110.691 85.1428 111.714 84.1194 111.714 82.8571C111.714 81.5948 110.691 80.5714 109.429 80.5714H91.1429C89.8806 80.5714 88.8572 79.548 88.8572 78.2857V69.1428H85.6987C83.6563 69.1439 82.0011 70.7991 82 72.8415V78.2857C82 82.0725 78.9297 85.1428 75.1429 85.1428H52.2857V108H70.8248C74.019 108.004 77.1685 108.748 80.0279 110.172L81.4464 110.883C83.6697 111.991 86.1194 112.569 88.6038 112.571H107.143C108.405 112.571 109.429 111.548 109.429 110.286C109.429 109.023 108.405 108 107.143 108H98C96.7377 108 95.7143 106.977 95.7143 105.714C95.7143 104.452 96.7377 103.429 98 103.429H109.429C110.691 103.429 111.714 102.405 111.714 101.143C111.714 99.8806 110.691 98.8571 109.429 98.8571H98C96.7377 98.8571 95.7143 97.8337 95.7143 96.5714C95.7143 95.3091 96.7377 94.2857 98 94.2857Z" fill="black"/>
<path d="M154.201 32.5715C142.189 27.3773 129.353 24.3427 116.286 23.6072V32.5715H154.201Z" fill="black"/>
<path d="M47.7143 114.857V78.2856H34V114.857H47.7143ZM38.5714 103.428C38.5714 102.166 39.5949 101.143 40.8571 101.143C42.1194 101.143 43.1429 102.166 43.1429 103.428V108C43.1429 109.262 42.1194 110.286 40.8571 110.286C39.5949 110.286 38.5714 109.262 38.5714 108V103.428Z" fill="black"/>
<path d="M84.2857 18.8572H111.714V37.1429H84.2857V18.8572Z" fill="black"/>
<path d="M102.571 14.2857C102.571 13.0234 101.548 12 100.286 12H95.7143C94.452 12 93.4286 13.0234 93.4286 14.2857H102.571Z" fill="black"/>
<path d="M93.4286 41.7144H102.571V76.0001H93.4286V41.7144Z" fill="black"/>
<path d="M41.7991 32.5715H79.7143V23.6072C66.6473 24.3416 53.8114 27.3773 41.7991 32.5715Z" fill="black"/>
</g>
<defs>
<clipPath id="clip0">
<rect width="200" height="140" fill="white" transform="translate(-2)"/>
</clipPath>
</defs>
</svg>
