<svg width="198" height="140" viewBox="0 0 198 140" fill="none" xmlns="http://www.w3.org/2000/svg">
<g clip-path="url(#clip0)">
<path d="M133.895 27.3921L101.417 31.8227C99.6536 32.0573 98.3382 33.5578 98.3382 35.3359V63.7817H133.896V27.3921H133.895Z" fill="black"/>
<path d="M138.049 134.939L98.352 128.325V120.673H137.451C139.414 120.673 141.007 119.08 141.007 117.117C141.007 115.155 139.414 113.561 137.451 113.561H23.6673C21.7045 113.561 20.1114 111.968 20.1114 110.006V24.6676C20.1114 22.7048 21.7045 21.1117 23.6673 21.1117H137.451C139.414 21.1117 141.007 19.5186 141.007 17.5559C141.007 15.5931 139.414 14 137.451 14H23.6673C17.7859 14 13 18.7859 13 24.6672V110.005C13 115.887 17.7859 120.673 23.6673 120.673H77.0035V128.325L37.307 134.938C35.3726 135.258 34.0572 137.093 34.3842 139.028C34.6759 140.77 36.1763 142 37.89 142C38.082 142 38.281 141.986 38.4804 141.95L80.8577 134.889H94.4975L136.875 141.95C137.074 141.986 137.266 142 137.465 142C139.172 142 140.68 140.77 140.971 139.028C141.291 137.094 139.983 135.259 138.049 134.939Z" fill="black"/>
<path d="M141.007 108.264L179.644 113.534C179.8 113.562 179.964 113.562 180.12 113.562C180.974 113.562 181.806 113.256 182.46 112.68C183.235 112.005 183.676 111.031 183.676 110.007V70.8931H141.007V108.264Z" fill="black"/>
<path d="M182.46 21.9944C181.692 21.3187 180.668 21.013 179.644 21.148L141.007 26.4179V63.7816H183.676V24.6685C183.676 23.6371 183.228 22.6701 182.46 21.9944Z" fill="black"/>
<path d="M98.3379 99.3393C98.3379 101.117 99.6536 102.618 101.417 102.866L133.895 107.304V70.8931H98.3379V99.3393Z" fill="black"/>
</g>
<defs>
<clipPath id="clip0">
<rect width="200" height="140" fill="white" transform="translate(-2)"/>
</clipPath>
</defs>
</svg>
