<svg width="320" height="200" viewBox="0 0 320 200" fill="none" xmlns="http://www.w3.org/2000/svg">
<path d="M56.9481 97.2724V77.0248H45.4768V88.2307L33.1898 88.3446V93.0713H45.4533V98.3063L33 98.4523V102.89L45.5082 102.829C45.5082 102.829 45.5082 120.394 45.5082 121.999C47.3061 121.999 56.9434 121.975 56.9434 121.975L56.9936 108.293L60.445 104.698L74.4749 122H89.0195L68.7738 98.572L90 77.0248L76.2383 77L56.9481 97.2724Z" fill="black"/>
<path d="M62.1333 104.4L56.1173 110.672V122H45.8133V77.2H56.1173V98.128L75.9573 77.2H87.4773L68.9173 97.168L88.5653 122H76.4693L62.1333 104.4ZM93.8283 77.2H104.196V113.552H126.66V122H93.8283V77.2ZM162.972 112.4H142.172L138.204 122H127.58L147.548 77.2H157.788L177.82 122H166.94L162.972 112.4ZM159.708 104.528L152.604 87.376L145.5 104.528H159.708ZM211.652 122L203.012 109.52H202.5H193.476V122H183.108V77.2H202.5C206.468 77.2 209.903 77.8613 212.804 79.184C215.748 80.5067 218.01 82.384 219.588 84.816C221.167 87.248 221.956 90.128 221.956 93.456C221.956 96.784 221.146 99.664 219.524 102.096C217.946 104.485 215.684 106.32 212.74 107.6L222.788 122H211.652ZM211.46 93.456C211.46 90.9387 210.65 89.0187 209.028 87.696C207.407 86.3307 205.039 85.648 201.924 85.648H193.476V101.264H201.924C205.039 101.264 207.407 100.581 209.028 99.216C210.65 97.8507 211.46 95.9307 211.46 93.456ZM252.507 122.768C247.856 122.768 243.653 121.765 239.899 119.76C236.187 117.755 233.264 115.003 231.131 111.504C229.04 107.963 227.995 103.995 227.995 99.6C227.995 95.2053 229.04 91.2587 231.131 87.76C233.264 84.2187 236.187 81.4453 239.899 79.44C243.653 77.4347 247.856 76.432 252.507 76.432C257.157 76.432 261.339 77.4347 265.051 79.44C268.763 81.4453 271.685 84.2187 273.819 87.76C275.952 91.2587 277.019 95.2053 277.019 99.6C277.019 103.995 275.952 107.963 273.819 111.504C271.685 115.003 268.763 117.755 265.051 119.76C261.339 121.765 257.157 122.768 252.507 122.768ZM252.507 113.936C255.152 113.936 257.541 113.339 259.675 112.144C261.808 110.907 263.472 109.2 264.667 107.024C265.904 104.848 266.523 102.373 266.523 99.6C266.523 96.8267 265.904 94.352 264.667 92.176C263.472 90 261.808 88.3147 259.675 87.12C257.541 85.8827 255.152 85.264 252.507 85.264C249.861 85.264 247.472 85.8827 245.339 87.12C243.205 88.3147 241.52 90 240.283 92.176C239.088 94.352 238.491 96.8267 238.491 99.6C238.491 102.373 239.088 104.848 240.283 107.024C241.52 109.2 243.205 110.907 245.339 112.144C247.472 113.339 249.861 113.936 252.507 113.936Z" fill="black"/>
</svg>
