<svg width="198" height="140" viewBox="0 0 198 140" fill="none" xmlns="http://www.w3.org/2000/svg">
<path d="M147.315 33.8947C156.453 33.8947 163.894 26.4541 163.894 17.3159C163.894 15.4856 162.408 14 160.578 14C151.44 14 143.999 21.4406 143.999 30.5788C143.999 32.4094 145.485 33.8947 147.315 33.8947Z" fill="black"/>
<path d="M176.633 74.6521C176.103 73.8298 175.247 73.2793 174.279 73.1534C169.551 72.5233 165.983 68.6439 165.983 64.1278C165.983 60.1753 168.663 56.6937 172.661 55.4602C173.656 55.1553 174.452 54.3925 174.803 53.4111C175.155 52.4297 175.022 51.3355 174.445 50.4667C170.579 44.6177 164.405 40.5259 159.431 40.5259C156.109 40.5259 153.105 41.4942 150.452 42.3562C148.403 43.0192 146.473 43.6493 144.875 43.6493C143.277 43.6493 141.347 43.0192 139.298 42.3562C136.652 41.4942 133.648 40.5259 130.319 40.5259C122.567 40.5259 110.836 50.5593 110.836 65.6861C110.836 79.944 121.752 100.21 131.938 100.21C136.812 100.21 139.789 98.9232 141.958 97.9882C144.71 96.801 145.055 96.8079 147.781 97.9882C149.956 98.9232 152.927 100.21 157.808 100.21C165.434 100.21 173.558 88.6178 177.006 77.4106C177.297 76.4824 177.157 75.4743 176.633 74.6521Z" fill="black"/>
<path d="M152.892 106.411C150.538 106.026 148.33 105.403 146.155 104.494C145.339 104.15 144.424 104.15 143.601 104.494C140.995 105.588 137.315 106.835 131.95 106.835C123.448 106.835 117.002 99.4146 113.912 94.9914C113.866 94.9252 113.786 94.8985 113.733 94.8323C113.514 94.5603 113.255 94.3483 112.963 94.1559C112.844 94.0763 112.745 93.9833 112.612 93.9237C112.181 93.7182 111.703 93.5789 111.193 93.5789H24.6314V30.5791C24.6314 25.0947 29.0944 20.6318 34.5788 20.6318H137.746C139.576 20.6318 141.062 19.1462 141.062 17.3159C141.062 15.4856 139.576 14 137.746 14H34.5788C25.4406 14 18 21.4406 18 30.5791V103.526C18 112.664 25.4406 120.105 34.5788 120.105H74.2751C73.9369 126.756 72.4315 133.368 67.7363 133.368C65.906 133.368 64.4204 134.854 64.4204 136.684C64.4204 138.514 65.906 140 67.7363 140H107.526C109.356 140 110.842 138.514 110.842 136.684C110.842 134.854 109.356 133.368 107.526 133.368C102.83 133.368 101.325 126.757 100.987 120.105H140.683C146.797 120.105 152.401 116.71 155.292 111.239C155.79 110.29 155.81 109.163 155.332 108.208C154.855 107.253 153.947 106.583 152.892 106.411Z" fill="black"/>
</svg>
