<?xml version="1.0" encoding="utf-8"?>
<!-- Generator: Adobe Illustrator 24.0.1, SVG Export Plug-In . SVG Version: 6.00 Build 0)  -->
<svg version="1.1" id="Layer_1" xmlns="http://www.w3.org/2000/svg" xmlns:xlink="http://www.w3.org/1999/xlink" x="0px" y="0px"
	 viewBox="0 0 128 128" style="enable-background:new 0 0 128 128;" xml:space="preserve">
<style type="text/css">
	.st0{fill:#FFFFFF;}
</style>
<path class="st0" d="M106.6,49.2c-3.5,0-6.5,1.6-8.8,4.2c-8.3-6.5-19.4-10.6-31.7-11.1l6.4-32.7L93,14.8C93,20.4,97,25,102,25
	c5.1,0,9.2-4.7,9.2-10.4c0-5.7-4.1-10.4-9.2-10.4c-3.6,0-6.6,2.4-8.2,5.8L71.3,4.4c-1.1-0.3-2.2,0.6-2.5,1.9l-7,36
	c-12.2,0.6-23.2,4.7-31.5,11.2c-2.2-2.6-5.4-4.3-8.9-4.3c-12.9,0-17.1,19.5-5.3,26.2c-0.4,2.1-0.6,4.3-0.6,6.5
	c0,21.9,21.8,39.7,48.6,39.7c26.9,0,48.8-17.8,48.8-39.7c0-2.2-0.2-4.5-0.7-6.6C123.7,68.5,119.4,49.2,106.6,49.2z M34.7,76.7
	c0-5.8,4.1-10.4,9.2-10.4c5,0,9.1,4.6,9.1,10.4c0,5.7-4.1,10.3-9.1,10.3C38.8,87,34.7,82.4,34.7,76.7z M84.3,101.2
	c-8.4,9.5-32.2,9.5-40.6,0c-0.9-0.9-0.9-2.5,0-3.6c0.8-0.9,2.2-0.9,3.1,0c6.4,7.5,27.8,7.6,34.5,0c0.8-0.9,2.2-0.9,3.1,0
	C85.2,98.7,85.2,100.3,84.3,101.2z M84.1,87c-5,0-9.1-4.6-9.1-10.3c0-5.8,4.1-10.4,9.1-10.4c5.1,0,9.2,4.6,9.2,10.4
	C93.3,82.4,89.2,87,84.1,87z"/>
</svg>
