<?xml version="1.0" encoding="utf-8"?>
<!-- Generator: Adobe Illustrator 24.0.1, SVG Export Plug-In . SVG Version: 6.00 Build 0)  -->
<svg version="1.1" id="Layer_1" xmlns="http://www.w3.org/2000/svg" xmlns:xlink="http://www.w3.org/1999/xlink" x="0px" y="0px"
	 viewBox="0 0 128 128" style="enable-background:new 0 0 128 128;" xml:space="preserve">
<style type="text/css">
	.st0{fill:#FFFFFF;}
</style>
<path class="st0" d="M64,117.5c26.5,0,48-21.5,48-48s-21.5-48-48-48S16,43,16,69.5S37.5,117.5,64,117.5z M38,68.5l46.3-17.8
	c2.1-0.8,4,0.5,3.3,3.8l0,0l-7.9,37.1c-0.6,2.6-2.1,3.3-4.3,2l-12-8.8l-5.8,5.6c-0.6,0.6-1.2,1.2-2.4,1.2L56,79.3l22.2-20.1
	c1-0.9-0.2-1.3-1.5-0.5L49.3,76l-11.8-3.7C34.8,71.5,34.8,69.7,38,68.5z"/>
</svg>
