<?xml version="1.0" encoding="utf-8"?>
<!-- Generator: Adobe Illustrator 24.0.1, SVG Export Plug-In . SVG Version: 6.00 Build 0)  -->
<svg version="1.1" id="Layer_1" xmlns="http://www.w3.org/2000/svg" xmlns:xlink="http://www.w3.org/1999/xlink" x="0px" y="0px"
	 viewBox="0 0 128 128" style="enable-background:new 0 0 128 128;" xml:space="preserve">
<style type="text/css">
	.st0{fill:#FFFFFF;}
</style>
<path class="st0" d="M112.4,49.4c4.8-3.4,8.8-7.7,12.1-12.6v0c-4.4,1.9-9.1,3.2-13.9,3.8c5-3,8.8-7.7,10.6-13.4
	c-4.7,2.8-9.8,4.8-15.3,5.9c-4.4-4.7-10.8-7.7-17.7-7.7C74.8,25.5,64,36.4,64,49.7c0,1.9,0.2,3.8,0.6,5.5
	c-20.1-1-37.9-10.6-49.9-25.3c-2.1,3.6-3.3,7.8-3.3,12.2c0,8.4,4.3,15.8,10.7,20.1c-3.9-0.1-7.7-1.2-10.9-3v0.3
	c0,11.8,8.4,21.5,19.4,23.8c-2,0.5-4.1,0.8-6.3,0.8c-1.5,0-3.1-0.1-4.6-0.4c3.1,9.6,12,16.6,22.6,16.9c-8.2,6.4-18.7,10.3-30,10.3
	c-2,0-3.9-0.1-5.8-0.3c10.7,6.9,23.4,10.9,37.1,10.9C86.3,121.5,114.1,85.8,112.4,49.4z"/>
</svg>
