<svg width="171" height="126" viewBox="0 0 171 126" fill="none" xmlns="http://www.w3.org/2000/svg">
<path d="M120.895 13.3921L88.4174 17.8227C86.6536 18.0573 85.3382 19.5578 85.3382 21.3359V49.7817H120.896V13.3921H120.895Z" fill="black"/>
<path d="M125.049 120.939L85.352 114.325V106.673H124.451C126.414 106.673 128.007 105.08 128.007 103.117C128.007 101.155 126.414 99.5614 124.451 99.5614H10.6673C8.70448 99.5614 7.11139 97.9684 7.11139 96.0056V10.6676C7.11139 8.70481 8.70448 7.11172 10.6673 7.11172H124.451C126.414 7.11172 128.007 5.51863 128.007 3.55586C128.007 1.59309 126.414 0 124.451 0H10.6673C4.78593 0 0 4.78593 0 10.6672V96.0052C0 101.887 4.78593 106.673 10.6673 106.673H64.0035V114.325L24.307 120.938C22.3726 121.258 21.0572 123.093 21.3842 125.028C21.6759 126.77 23.1763 128 24.89 128C25.082 128 25.281 127.986 25.4804 127.95L67.8577 120.889H81.4975L123.875 127.95C124.074 127.986 124.266 128 124.465 128C126.172 128 127.68 126.77 127.971 125.028C128.291 123.094 126.983 121.259 125.049 120.939Z" fill="black"/>
<path d="M128.007 94.2641L166.644 99.5337C166.8 99.5621 166.964 99.5621 167.12 99.5621C167.974 99.5621 168.806 99.2564 169.46 98.6804C170.235 98.0047 170.676 97.0306 170.676 96.0065V56.8931H128.007V94.2641Z" fill="black"/>
<path d="M169.46 7.99436C168.692 7.31865 167.668 7.01297 166.644 7.14798L128.007 12.4179V49.7816H170.676V10.6685C170.676 9.63712 170.228 8.67006 169.46 7.99436Z" fill="black"/>
<path d="M85.3379 85.3393C85.3379 87.1171 86.6536 88.6178 88.4171 88.8665L120.895 93.3041V56.8931H85.3379V85.3393Z" fill="black"/>
</svg>
