<?xml version="1.0" encoding="utf-8"?>
<!-- Generator: Adobe Illustrator 24.0.1, SVG Export Plug-In . SVG Version: 6.00 Build 0)  -->
<svg version="1.1" xmlns="http://www.w3.org/2000/svg" xmlns:xlink="http://www.w3.org/1999/xlink" x="0px" y="0px"
	 viewBox="0 0 1600 900" style="enable-background:new 0 0 1600 900;" xml:space="preserve">
<style type="text/css">
	.st0{display:none;}
	.st1{display:inline;}
	.st2{fill:none;stroke:#12F8F8;stroke-width:4;stroke-miterlimit:10;}
	.st3{fill:#12F8F8;}
</style>
<g id="Layer_1" class="st0">
	<g class="st1">
		<path class="st2" d="M53.8,94.1h72.8l34.1-42.5h126.8l33.3,29.1l489.9,0.4h324.9l36.8-39"/>
		<path class="st2" d="M79.9,19.9h97.3l24.2,31.7"/>
		<path class="st2" d="M266-9.1h98.1L394,23h150.2l31.4,42.8h235.1h233.7l49-48.2"/>
		<path class="st2" d="M507.4-18.3v16.8h62l44.4,52h196.9h138.7l29.1-30.6h43.7l19.2-18.4h17.6"/>
		<path class="st2" d="M613.8,274.7v-55.1l34-45.9l-1.1-77.3h164h270.5l23.7,22.2h64.4l16.9-17.6h51.3"/>
		<path class="st2" d="M613.8,476.6v-130l34.5-44.4l-0.8-128.5"/>
		<path class="st2" d="M636.1,521h28.4V379.5l28.3-24.5V111.8h118h137.8l37.5,38.2h70.5l19.2,19.1h59.8"/>
		<path class="st2" d="M692,601.3v-29.8l-14.6-31.4v-153l15.4-15.3V355"/>
		<path class="st2" d="M747.9,656.4v-85.7L720.3,524l0.8-397h216l49,47.4h32.9v22.9"/>
		<path class="st2" d="M767.1,474.3h-24.5v-38.2l-22.2-21.4"/>
		<path class="st2" d="M1029.6,150l59.2,62.7h82.7l15.3,10.7h36"/>
		<path class="st2" d="M1190.7,180.6h-15.3l-19.9,19.9h-77.9"/>
		<path class="st2" d="M1072.7,127H963.6"/>
		<path class="st2" d="M1367.7,42.1h-15.3l-22.2,23.7h-78.9l-35.1,35.2"/>
		<path class="st2" d="M1403.7,96.4h-65.9l-29.1-30.6"/>
		<path class="st2" d="M1059,17.6l-23,24.5h-78.9"/>
		<path class="st2" d="M1176.9,23.8H1134l-23.7,23.7h-16.9"/>
		<path class="st2" d="M1547,156.9h-196.9l-27.6-29.8h-62.8l-10.7-10.7h-26"/>
		<path class="st2" d="M1254.3,143.1h-72.8l-26.4-24.5"/>
		<path class="st2" d="M1366.6,116.7h23.7l37.2,40.2"/>
		<path class="st2" d="M1277.7,192.4h21.5l16.9,16.1h127.1l47.9-51.6"/>
		<path class="st2" d="M1278.1,208.1h20.7l12.3,13.8h102.6"/>
		<path class="st2" d="M1337.8,143.1l-43.7,0.4l-15.3,15.7l-82,0.8l-15.3-16.8"/>
	</g>
</g>
<g id="Layer_2">
	<path class="st3" d="M47.7,168.7v12.2H60v-12.2H47.7z"/>
	<path class="st3" d="M73.7,94.5v12.3H86V94.6L73.7,94.5L73.7,94.5z"/>
	<path class="st3" d="M475.6,177.1v12.2h12.3v-12.2H475.6z"/>
	<path class="st3" d="M239.7,217.7v12.2H252v-12.2H239.7z"/>
	<path class="st3" d="M863.8,120.6v12.2h12.3v-12.2H863.8z"/>
	<path class="st3" d="M1013,268.9v12.2h12.3v-12.2H1013z"/>
	<path class="st3" d="M1225.2,401.2v12.2h12.3v-12.2H1225.2z"/>
	<path class="st3" d="M463.3,490.5v12.2h12.3v-12.2H463.3z"/>
	<path class="st3" d="M1129.4,243.7v12.2h12.3v-12.2H1129.4z"/>
	<path class="st3" d="M1341.1,508.9v12.2h12.3v-12.2H1341.1z"/>
	<path class="st3" d="M1170.8,98.3v12.2h12.3V98.3H1170.8z"/>
	<path class="st3" d="M170.7,162.6v12.2H183v-12.2H170.7z"/>
	<path class="st3" d="M1066.6,201.6v12.2h12.3v-12.2H1066.6z"/>
	<path class="st3" d="M170.7,397.1v12.2H183v-12.2H170.7z"/>
	<path class="st3" d="M414.3,308.7v12.2h12.3v-12.2H414.3z"/>
	<path class="st3" d="M307.7,743.7v12.2H320v-12.2H307.7z"/>
	<path class="st3" d="M1457.6,409.3v12.2h12.3v-12.2H1457.6z"/>
	<path class="st3" d="M1013,94.6v12.2h12.3V94.6H1013z"/>
	<path class="st3" d="M971.9,680.9v12.2h12.3v-12.2H971.9z"/>
	<path class="st3" d="M1231.3,175.6v12.2h12.3v-12.2H1231.3z"/>
	<path class="st3" d="M117.1,296.5v12.2h12.3v-12.2H117.1z"/>
	<path class="st3" d="M1271.9,267.4v12.2h12.3v-12.2H1271.9z"/>
	<path class="st3" d="M1360.8,190.9v12.2h12.3v-12.2H1360.8z"/>
	<path class="st3" d="M1361.6,116.7v12.2h12.2v-12.2H1361.6z"/>
	<path class="st3" d="M1445.3,162.6v12.2h12.2v-12.2H1445.3z"/>
	<path class="st3" d="M1407.5,296.5v12.2h12.3v-12.2H1407.5z"/>
	<path class="st3" d="M1540.1,231.4v12.2h12.2v-12.2H1540.1z"/>
	<path class="st3" d="M1419.8,598.2v12.2h12.3v-12.2H1419.8z"/>
	<path class="st3" d="M322.4,126.5v12.2h12.3v-12.2H322.4z"/>
	<path class="st3" d="M607.7,349.2v12.2H620v-12.2H607.7z"/>
	<path class="st3" d="M664,168.7V181h12.3v-12.2L664,168.7L664,168.7z"/>
	<path class="st3" d="M788.8,247.6v12.2h12.3v-12.2H788.8z"/>
	<path class="st3" d="M844.7,302.6v12.2H857v-12.2H844.7z"/>
	<path class="st3" d="M1176.3,610.4c0,3.8,0,7.1,0,11c-3.8,0-7.3,0-11.1,0c0-3.7,0-7.1,0-11C1168.9,610.4,1172.4,610.4,1176.3,610.4
		z"/>
	<path class="st3" d="M1370.9,190.7c0,3.9,0,7.2,0,11c-3.7,0-7.1,0-11,0c0-3.6,0-7.1,0-11C1363.6,190.7,1367,190.7,1370.9,190.7z"/>
	<path class="st3" d="M1538.1,470v-12.2h-12.3V470H1538.1z"/>
	<path class="st3" d="M1512.1,544.2v-12.3h-12.3v12.2L1512.1,544.2L1512.1,544.2z"/>
	<path class="st3" d="M1110.2,461.6v-12.2h-12.3v12.2H1110.2z"/>
	<path class="st3" d="M1346.1,421v-12.2h-12.3V421H1346.1z"/>
	<path class="st3" d="M722,518.1v-12.2h-12.3v12.2H722z"/>
	<path class="st3" d="M572.8,369.8v-12.2h-12.3v12.2H572.8z"/>
	<path class="st3" d="M369,340.7v-12.2h-12.3v12.2H369z"/>
	<path class="st3" d="M1122.5,148.2V136h-12.3v12.2H1122.5z"/>
	<path class="st3" d="M456.4,395v-12.2h-12.3V395H456.4z"/>
	<path class="st3" d="M244.7,129.8v-12.2h-12.3v12.2H244.7z"/>
	<path class="st3" d="M415,540.4v-12.2h-12.3v12.2H415z"/>
	<path class="st3" d="M1438.3,488.3v-12.2h-12.3v12.2H1438.3z"/>
	<path class="st3" d="M531.5,668.6v-12.2h-12.3v12.2H531.5z"/>
	<path class="st3" d="M1415.1,241.7v-12.2h-12.3v12.2H1415.1z"/>
	<path class="st3" d="M1171.5,330v-12.2h-12.3V330H1171.5z"/>
	<path class="st3" d="M1251.1,235.6v-12.2h-12.3v12.2H1251.1z"/>
	<path class="st3" d="M128.2,229.5v-12.2h-12.3v12.2H128.2z"/>
	<path class="st3" d="M572.8,544.1v-12.2h-12.3v12.2H572.8z"/>
	<path class="st3" d="M627.7,187.8v-12.2h-12.3v12.2H627.7z"/>
	<path class="st3" d="M354.5,463.1v-12.2h-12.3v12.2H354.5z"/>
	<path class="st3" d="M1468.7,342.2V330h-12.3v12.2H1468.7z"/>
	<path class="st3" d="M313.9,371.3v-12.2h-12.3v12.2H313.9z"/>
	<path class="st3" d="M225,447.8v-12.2h-12.3v12.2H225z"/>
	<path class="st3" d="M224.2,522v-12.2H212V522H224.2z"/>
	<path class="st3" d="M140.5,476.1v-12.2h-12.2v12.2H140.5z"/>
	<path class="st3" d="M354.5,616.5v-12.2h-12.3v12.2H354.5z"/>
	<path class="st3" d="M45.7,407.3v-12.2H33.5v12.2H45.7z"/>
	<path class="st3" d="M134.4,88.5V76.3h-12.3v12.2H134.4z"/>
	<path class="st3" d="M1263.4,512.2V500h-12.3v12.2H1263.4z"/>
	<path class="st3" d="M978.1,289.5v-12.2h-12.3v12.2H978.1z"/>
	<path class="st3" d="M921.8,470v-12.3h-12.3v12.2L921.8,470L921.8,470z"/>
	<path class="st3" d="M797,391.1v-12.2h-12.3v12.2H797z"/>
	<path class="st3" d="M741.1,336.1v-12.2h-12.3v12.2H741.1z"/>
	<path class="st3" d="M444.7,198.8c0-3.8,0-7.1,0-11c3.8,0,7.3,0,11.1,0c0,3.7,0,7.1,0,11C452.1,198.8,448.6,198.8,444.7,198.8z"/>
	<path class="st3" d="M110.4,661.9c0-3.9,0-7.2,0-11c3.7,0,7.1,0,11,0c0,3.6,0,7.1,0,11C117.7,661.9,114.3,661.9,110.4,661.9z"/>
</g>
<g id="Layer_3">
</g>
</svg>
