<?xml version="1.0" encoding="utf-8"?>
<!-- Generator: Adobe Illustrator 24.0.1, SVG Export Plug-In . SVG Version: 6.00 Build 0)  -->
<svg version="1.1" xmlns="http://www.w3.org/2000/svg" xmlns:xlink="http://www.w3.org/1999/xlink" x="0px" y="0px"
	 viewBox="0 0 1600 900" style="enable-background:new 0 0 1600 900;" xml:space="preserve">
<style type="text/css">
	.st0{fill:none;stroke:#12F8F8;stroke-width:4;stroke-miterlimit:10;}
</style>
<g id="Layer_1">
	<g>
		<path class="st0" d="M1239.1,689.1h-46.8l-21.9,27.4h-81.6l-21.4-18.7L752,697.4H625.5L577,767.6"/>
		<path class="st0" d="M1222.3,736.8h-62.6l-15.6-20.4"/>
		<path class="st0" d="M1102.5,755.5h-63.1l-19.2-20.7h-96.7l-20.2-27.5H645.5l-43.9,70.1"/>
		<path class="st0" d="M878.7,572.9v35.5l-21.9,29.5l0.7,49.7H752H577.9l-15.3-14.3h-41.4l-10.9,11.3h-33"/>
		<path class="st0" d="M878.7,442.9v83.7l-22.2,28.6l0.5,82.7"/>
		<path class="st0" d="M864.4,414.4h-18.3v91.1l-18.2,15.8v156.5h-75.9h-88.7l-24.1-24.6h-45.4l-12.4-12.3h-38.5"/>
		<path class="st0" d="M828.4,362.7v19.2l9.4,20.2v98.5l-9.9,9.8v10.8"/>
		<path class="st0" d="M792.4,327.2v55.2l17.8,30.1l-0.5,255.5h-139l-31.5-30.5H618v-14.7"/>
		<path class="st0" d="M780.1,444.4h15.8V469l14.3,13.8"/>
		<path class="st0" d="M611.1,653.1L573,612.8h-53.2l-9.8-6.9h-23.2"/>
		<path class="st0" d="M507.5,633.4h9.8l12.8-12.8h50.1"/>
		<path class="st0" d="M583.4,667.9h70.2"/>
		<path class="st0" d="M393.6,722.5h9.8l14.3-15.3h50.8l22.6-22.7"/>
		<path class="st0" d="M370.4,687.6h42.4l18.7,19.7"/>
		<path class="st0" d="M466.5,657.5h46.8l17,15.8"/>
		<g>
			<path class="st0" d="M1243,693v-7.9h-7.9v7.9H1243z"/>
			<path class="st0" d="M1226.3,740.8v-7.9h-7.9v7.9L1226.3,740.8L1226.3,740.8z"/>
			<path class="st0" d="M1106.5,759.5v-7.9h-7.9v7.9H1106.5z"/>
			<path class="st0" d="M784.1,448.3v-7.9h-7.9v7.9H784.1z"/>
			<path class="st0" d="M621.8,628.5v-7.9h-7.9v7.9H621.8z"/>
			<path class="st0" d="M490.7,609.8v-7.9h-7.9v7.9H490.7z"/>
			<path class="st0" d="M511.4,637.4v-7.9h-7.9v7.9H511.4z"/>
			<path class="st0" d="M546.9,644.7v-7.9H539v7.9H546.9z"/>
			<path class="st0" d="M587.3,671.8V664h-7.9v7.9H587.3z"/>
			<path class="st0" d="M587.3,671.8V664h-7.9v7.9H587.3z"/>
			<path class="st0" d="M481.3,688.6v-7.9h-7.9v7.9H481.3z"/>
			<path class="st0" d="M470.5,661.5v-7.9h-7.9v7.9H470.5z"/>
			<path class="st0" d="M397.5,726.5v-7.9h-7.9v7.9H397.5z"/>
			<path class="st0" d="M374.3,691.5v-7.9h-7.9v7.9H374.3z"/>
			<path class="st0" d="M882.6,446.9V439h-7.9v7.9H882.6z"/>
			<path class="st0" d="M882.6,576.8V569h-7.9v7.9H882.6z"/>
			<path class="st0" d="M868.4,418.3v-7.9h-7.9v7.9L868.4,418.3L868.4,418.3z"/>
			<path class="st0" d="M832.3,366.6v-7.9h-7.9v7.9H832.3z"/>
			<path class="st0" d="M796.4,331.2v-7.9h-7.9v7.9H796.4z"/>
		</g>
	</g>
	<g>
		<path class="st0" d="M217.5,762.2l23.7,25.1h209.1l315.3-0.3l21.4-18.7h81.6l21.9,27.4h46.8"/>
		<path class="st0" d="M842.4,768.3l15.6-20.4h62.6"/>
		<path class="st0" d="M268.4,746.4l31.5,31h150.4h151.3"/>
		<path class="st0" d="M290.5,736h11.3l12.4,11.8h28.1l18.7,19.7h89.3H577"/>
		<path class="st0" d="M175.6,800.1h33l10.9,11.3H261l15.3-14.3h174.1h105.5l-0.7,49.7l21.9,29.5v35.5"/>
		<path class="st0" d="M555.3,846.8l-0.5,82.7l22.2,28.6v83.7"/>
		<path class="st0" d="M241.2,843.9h38.5l12.4-12.3h45.4l24.1-24.6h88.7h75.9v156.5l18.2,15.8v91.1h18.3"/>
		<path class="st0" d="M526.2,963.5v10.8l9.9,9.8v98.5l-9.4,20.2v19.2"/>
		<path class="st0" d="M316.2,862v-14.7h21.2l31.5-30.5h139l0.5,255.5l-17.8,30.1v55.2"/>
		<path class="st0" d="M508.4,1001.9l-14.3,13.8v24.6h-15.8"/>
		<path class="st0" d="M185.1,878.8h23.2l9.8-6.9h53.2l38.1-40.3"/>
		<path class="st0" d="M278.5,864.1h-50.1l-12.8-12.8h-9.8"/>
		<path class="st0" d="M351.9,816.8h-70.2"/>
		<path class="st0" d="M268.4,765.6h-10.9l-15.3-15.3h-27.6"/>
		<path class="st0" d="M228.7,811.4l-17,15.8h-46.8"/>
		<g>
			<path class="st0" d="M933.4,791.7v7.9h7.9v-7.9H933.4z"/>
			<path class="st0" d="M924.6,743.9l-7.9,0.1v7.9h7.9V743.9L924.6,743.9z"/>
			<path class="st0" d="M474.4,1036.4v7.9h7.9v-7.9H474.4z"/>
			<path class="st0" d="M312.2,856.2v7.9h7.9v-7.9H312.2z"/>
			<path class="st0" d="M181,874.9v7.9h7.9v-7.9H181z"/>
			<path class="st0" d="M201.8,847.3v7.9h7.9v-7.9H201.8z"/>
			<path class="st0" d="M237.3,840v7.9h7.9V840H237.3z"/>
			<path class="st0" d="M213.6,758.2v7.9h7.9v-7.9H213.6z"/>
			<path class="st0" d="M210.6,746.4v7.9h7.9v-7.9H210.6z"/>
			<path class="st0" d="M264.4,761.7v7.9h7.9v-7.9H264.4z"/>
			<path class="st0" d="M277.7,812.9v7.9h7.9v-7.9H277.7z"/>
			<path class="st0" d="M277.7,812.9v7.9h7.9v-7.9H277.7z"/>
			<path class="st0" d="M277.7,783.3v7.9h7.9v-7.9H277.7z"/>
			<path class="st0" d="M264.4,742.5v7.9h7.9v-7.9H264.4z"/>
			<path class="st0" d="M286.6,731.7v7.9h7.9v-7.9H286.6z"/>
			<path class="st0" d="M171.7,796.1v7.9h7.9v-7.9H171.7z"/>
			<path class="st0" d="M160.8,823.2v7.9h7.9v-7.9H160.8z"/>
			<path class="st0" d="M573,1037.8v7.9h7.9v-7.9H573z"/>
			<path class="st0" d="M573,907.9v7.9h7.9v-7.9H573z"/>
			<path class="st0" d="M566.6,1066.4l-7.9,0.1v7.9h7.9V1066.4L566.6,1066.4z"/>
			<path class="st0" d="M522.7,1118.1v7.9h7.9v-7.9H522.7z"/>
			<path class="st0" d="M486.7,1153.5v7.9h7.9v-7.9H486.7z"/>
			<path class="st0" d="M272,761.4c0,2.5,0,4.7,0,7.1c-2.4,0-4.7,0-7.1,0c0-2.5,0-4.6,0-7.1C267.3,761.4,269.6,761.4,272,761.4z"/>
		</g>
	</g>
	<g>
		<path class="st0" d="M1322.3,497.5l-25.1,23.7v209.1l0.3,315.3l18.7,21.4v81.6l-27.4,21.9v46.8"/>
		<path class="st0" d="M1316.2,1122.4l20.4,15.6v62.6"/>
		<path class="st0" d="M1338.1,548.4l-31,31.5v150.4v151.3l27.5,20.2v96.7l20.7,19.2v63.1"/>
		<path class="st0" d="M1348.4,570.5v11.3l-11.8,12.4v28.1l-19.7,18.7v89.3V857l33.5,28.6v39.9h10.8"/>
		<path class="st0" d="M1284.4,455.6v33l-11.3,10.9V541l14.3,15.3v174.1v105.5l-49.7-0.7l-29.5,21.9h-35.5"/>
		<path class="st0" d="M1237.6,835.3l-82.7-0.5l-28.6,22.2h-83.7"/>
		<path class="st0" d="M1240.6,521.2v38.5l12.3,12.4v45.4l24.6,24.1v88.7v75.9H1121l-15.8,18.2h-91.1v18.3"/>
		<path class="st0" d="M1121,806.2h-10.8l-9.8,9.9h-98.5l-20.2-9.4h-19.2"/>
		<path class="st0" d="M1222.4,596.3h14.7v21.2l30.5,31.5v139l-255.5,0.5l-30.1-17.8H927"/>
		<path class="st0" d="M1205.6,465.1v23.2l6.9,9.8v53.2l40.3,38.1"/>
		<path class="st0" d="M1220.4,558.5v-50.1l12.8-12.8v-9.8"/>
		<path class="st0" d="M1267.7,631.9v-70.2"/>
		<path class="st0" d="M1273.1,508.7l-15.8-17v-46.8"/>
		<g>
			<path class="st0" d="M1292.8,1213.4h-7.9v7.9h7.9V1213.4z"/>
			<path class="st0" d="M1340.5,1204.6l-0.1-7.9h-7.9v7.9H1340.5L1340.5,1204.6z"/>
			<path class="st0" d="M1365.1,921.6h-7.9v7.9h7.9V921.6z"/>
			<path class="st0" d="M1359.3,1076.8h-7.9v7.9h7.9V1076.8z"/>
			<path class="st0" d="M1228.3,592.2h-7.9v7.9h7.9V592.2z"/>
			<path class="st0" d="M1209.6,461h-7.9v7.9h7.9V461z"/>
			<path class="st0" d="M1237.2,481.8h-7.9v7.9h7.9V481.8z"/>
			<path class="st0" d="M1244.5,517.3h-7.9v7.9h7.9V517.3z"/>
			<path class="st0" d="M1326.2,493.6h-7.9v7.9h7.9V493.6z"/>
			<path class="st0" d="M1271.6,557.7h-7.9v7.9h7.9V557.7z"/>
			<path class="st0" d="M1271.6,557.7h-7.9v7.9h7.9V557.7z"/>
			<path class="st0" d="M1342,544.4h-7.9v7.9h7.9V544.4z"/>
			<path class="st0" d="M1352.8,566.6h-7.9v7.9h7.9V566.6z"/>
			<path class="st0" d="M1288.3,451.7h-7.9v7.9h7.9V451.7z"/>
			<path class="st0" d="M1261.2,440.8h-7.9v7.9h7.9V440.8z"/>
			<path class="st0" d="M1046.6,853h-7.9v7.9h7.9V853z"/>
			<path class="st0" d="M1176.6,853h-7.9v7.9h7.9V853z"/>
			<path class="st0" d="M1018.1,846.7l-0.1-7.9h-7.9v7.9H1018.1L1018.1,846.7z"/>
			<path class="st0" d="M966.4,802.7h-7.9v7.9h7.9V802.7z"/>
			<path class="st0" d="M931,766.7h-7.9v7.9h7.9V766.7z"/>
		</g>
	</g>
</g>
<g id="Layer_2">
</g>
</svg>
