<?xml version="1.0" encoding="utf-8"?>
<!-- Generator: Adobe Illustrator 24.0.1, SVG Export Plug-In . SVG Version: 6.00 Build 0)  -->
<svg version="1.1" id="Layer_1" xmlns="http://www.w3.org/2000/svg" xmlns:xlink="http://www.w3.org/1999/xlink" x="0px" y="0px"
	 viewBox="0 0 260 60" style="enable-background:new 0 0 260 60;" xml:space="preserve">
<style type="text/css">
	.st0{fill:#FFFFFF;}
</style>
<g>
	<path class="st0" d="M248.7,18.3c-2.1-3.5-5.1-6.3-8.8-8.3c-3.7-2-7.9-3-12.5-3c-4.7,0-8.9,1-12.6,3c-3.7,2-6.6,4.8-8.8,8.3
		c-2.1,3.5-3.1,7.4-3.1,11.8s1,8.4,3.1,11.9s5.1,6.3,8.8,8.3c3.8,2,8,3,12.6,3c4.7,0,8.8-1,12.5-3s6.6-4.8,8.8-8.3
		c2.1-3.5,3.2-7.5,3.2-11.9C251.9,25.8,250.8,21.8,248.7,18.3z M239.5,37.6c-1.2,2.2-2.9,3.9-5,5.1c-2.1,1.2-4.5,1.8-7.2,1.8
		c-2.6,0-5-0.6-7.2-1.8c-2.1-1.2-3.8-2.9-5.1-5.1c-1.2-2.2-1.8-4.7-1.8-7.4c0-2.8,0.6-5.2,1.8-7.4s2.9-3.9,5.1-5.1
		c2.1-1.2,4.5-1.9,7.2-1.9c2.6,0,5,0.6,7.2,1.9c2.1,1.2,3.8,2.9,5,5.1c1.2,2.2,1.9,4.7,1.9,7.4S240.7,35.4,239.5,37.6z"/>
	<path class="st0" d="M187.6,38.2c2.9-1.3,5.2-3.1,6.8-5.5s2.4-5.3,2.4-8.6s-0.8-6.2-2.4-8.6c-1.6-2.4-3.8-4.3-6.8-5.6
		c-2.9-1.3-6.3-2-10.3-2h-19.4v44.8h10.4V40.1h9h0.5l8.6,12.5h11.1L187.6,38.2z M183.9,29.8c-1.6,1.4-4,2-7.1,2h-8.4V16.2h8.4
		c3.1,0,5.5,0.7,7.1,2s2.4,3.2,2.4,5.8C186.3,26.5,185.5,28.4,183.9,29.8z"/>
	<path class="st0" d="M132.6,7.8h-10.2l-20,44.8H113l4-9.6h20.8l4,9.6h10.9L132.6,7.8z M120.3,35.1l7.1-17.2l7.1,17.2H120.3z"/>
	<polygon class="st0" points="68.7,7.8 79,7.8 79,44.1 101.5,44.1 101.5,52.6 68.7,52.6 	"/>
	<path class="st0" d="M31.8,27.8V7.6H20.3v11.2L8,18.9v4.7h12.3v5.2L7.8,29v4.4l12.5-0.1c0,0,0,17.6,0,19.2c1.8,0,11.4,0,11.4,0
		l0.1-13.7l3.5-3.6l14,17.3h14.5L43.6,29.1L64.8,7.6H51L31.8,27.8z"/>
</g>
</svg>
