<?xml version="1.0" encoding="utf-8"?>
<!-- Generator: Adobe Illustrator 24.0.1, SVG Export Plug-In . SVG Version: 6.00 Build 0)  -->
<svg version="1.1" id="Capa_1" xmlns="http://www.w3.org/2000/svg" xmlns:xlink="http://www.w3.org/1999/xlink" x="0px" y="0px"
	 viewBox="0 0 128 128" style="enable-background:new 0 0 128 128;" xml:space="preserve">
<g>
	<path d="M107.9,87.8c-0.3,0.8-0.6,1.7-0.9,2.5c-2.6,7.1-6.6,13.4-11.5,19.2c-0.9,1.1-2,2.1-3.1,3.1c-2.2,1.9-4.8,3-7.7,3.1
		c-2.2,0.1-4.4-0.3-6.4-1.2c-1.5-0.6-3-1.3-4.5-1.8c-4.9-1.8-9.8-1.5-14.6,0.4c-1.7,0.7-3.5,1.4-5.2,2c-2.1,0.7-4.2,1-6.3,0.6
		c-1.9-0.4-3.5-1.2-5.1-2.4c-1.9-1.4-3.5-3.1-5-5C30.5,99.8,25.7,90,23.4,79c-1-4.7-1.5-9.5-1.2-14.3c0.3-5.8,1.7-11.3,4.8-16.2
		c3.9-6.2,9.3-10.3,16.5-12c4.3-1,8.5-0.6,12.6,1c2.2,0.8,4.3,1.7,6.5,2.5c2,0.8,4,0.8,6,0c2.2-0.8,4.4-1.7,6.7-2.5
		c2.3-0.8,4.6-1.5,7-1.7C86,35.5,89.5,36,93,37.1c4.9,1.6,8.9,4.5,11.9,8.7c0.1,0.1,0.2,0.2,0.2,0.3c-7.6,5.3-11.9,12.2-11.2,21.7
		C94.4,77.3,99.5,83.7,107.9,87.8z M65.4,34.6c2.2,0.1,4.4-0.4,6.4-1.2c9.4-3.7,14.4-13.7,14.2-21.3c0-0.6-0.1-1.2-0.1-1.9
		c-1,0.1-1.9,0.2-2.7,0.4c-6.9,1.7-12.2,5.5-15.7,11.7c-2,3.6-3.2,7.5-2.8,11.7C64.8,34.5,65,34.6,65.4,34.6z"/>
</g>
</svg>
