<?xml version="1.0" encoding="utf-8"?>
<!-- Generator: Adobe Illustrator 24.0.1, SVG Export Plug-In . SVG Version: 6.00 Build 0)  -->
<svg version="1.1" id="Capa_1" xmlns="http://www.w3.org/2000/svg" xmlns:xlink="http://www.w3.org/1999/xlink" x="0px" y="0px"
	 viewBox="0 0 128 128" style="enable-background:new 0 0 128 128;" xml:space="preserve">
<g>
	<path d="M40.9,70.3h4.2v4.2h4.2v4.2h-21v-4.2h4.2v-8.4h8.4L40.9,70.3C40.9,70.3,40.9,70.3,40.9,70.3z M95.5,108h4.2v-4.2h-4.2V108z
		 M45.1,70.3h4.2v-4.2h-4.2V70.3z M103.8,108h4.2v-4.2h-4.2V108z M53.5,112.2h8.4V108h-8.4C53.5,108,53.5,112.2,53.5,112.2z
		 M91.3,112.2V108h-4.2v4.2H91.3z M74.5,112.2h4.2v-8.4h-4.2V112.2z M40.9,57.7v4.2h12.6v-4.2H40.9z M36.8,61.9v-4.2h-8.4v8.4h4.2
		v-4.2C32.6,61.9,36.8,61.9,36.8,61.9z M49.3,53.5H20V24.2h29.4V53.5z M45.1,28.4h-21v21h21V28.4z M28.4,103.8h12.6V91.3H28.4V103.8
		z M70.3,99.6v4.2h4.2v-4.2H70.3z M40.9,32.6H28.4v12.6h12.6C40.9,45.1,40.9,32.6,40.9,32.6z M108,24.2v29.4H78.7V24.2H108z
		 M103.8,28.4h-21v21h21C103.8,49.3,103.8,28.4,103.8,28.4z M20,82.9h29.4v29.4H20V82.9z M24.2,108h21v-21h-21V108z M24.2,57.7H20
		v21h4.2V57.7z M78.7,78.7v4.2h4.2v-4.2H78.7z M66.1,95.5v-4.2h-4.2v4.2h-8.4v8.4h8.4v4.2h4.2v-8.4h4.2v-4.2L66.1,95.5L66.1,95.5z
		 M53.5,40.9h8.4v-4.2h-8.4C53.5,36.7,53.5,40.9,53.5,40.9z M87.1,74.5h8.4v4.2h4.2V66.1h-4.2v-8.4h-4.2v12.6H78.7v4.2h4.2v4.2h4.2
		L87.1,74.5L87.1,74.5L87.1,74.5z M91.3,87.1h-4.2v-4.2h-4.2v8.4H70.3v4.2h8.4v8.4h4.2v4.2h4.2v-8.4h16.8v-4.2H91.3L91.3,87.1
		L91.3,87.1z M91.3,87.1h4.2v-8.4h-4.2V87.1z M57.7,87.1v-4.2h4.2v-4.2h4.2v-4.2h4.2v-8.4h12.6v-8.4h-4.2v4.2h-4.2V45.1h-4.2v-8.4
		h4.2V24.2h-4.2v8.4h-4.2v-8.4H53.5v8.4h4.2v-4.2h4.2v8.4h4.2v12.6h4.2v4.2h-4.2v8.4h-4.2v-8.4h-4.2v-4.2h-4.2v8.4h4.2v4.2h-4.2
		v12.6h4.2v-8.4h4.2v8.4h-4.2v4.2h-4.2v12.6h8.4v-4.2H57.7z M103.8,91.3v-4.2h-8.4v4.2H103.8z M99.6,32.6H87.1v12.6h12.6V32.6z
		 M66.1,87.1h8.4v-4.2h-4.2v-4.2h-4.2L66.1,87.1L66.1,87.1z M74.5,78.7v-4.2h-4.2v4.2H74.5z M99.6,61.9h8.4v-4.2h-8.4V61.9z
		 M103.8,95.5h4.2v-4.2h-4.2V95.5z M103.8,70.3h4.2v-4.2h-4.2V70.3z M66.1,49.3h-4.2v4.2h4.2V49.3z"/>
</g>
</svg>
