<?xml version="1.0" encoding="utf-8"?>
<!-- Generator: Adobe Illustrator 24.0.1, SVG Export Plug-In . SVG Version: 6.00 Build 0)  -->
<svg version="1.1" id="Capa_1" xmlns="http://www.w3.org/2000/svg" xmlns:xlink="http://www.w3.org/1999/xlink" x="0px" y="0px"
	 viewBox="0 0 128 128" style="enable-background:new 0 0 128 128;" xml:space="preserve">
<g>
	<path d="M105.3,25.5H22.8c-1.5,0-2.8,1.2-2.8,2.8v15.6c0,1.5,1.2,2.8,2.8,2.8h82.5c1.5,0,2.8-1.2,2.8-2.8V28.3
		C108,26.7,106.8,25.5,105.3,25.5z M102.5,41.1H79V31h23.5V41.1z M105.3,53.4H22.8c-1.5,0-2.8,1.2-2.8,2.8v15.6
		c0,1.5,1.2,2.8,2.8,2.8h82.5c1.5,0,2.8-1.2,2.8-2.8V56.2C108,54.7,106.8,53.4,105.3,53.4z M102.5,69.1H61.2V58.9h41.3V69.1z
		 M105.3,81.4H22.8c-1.5,0-2.8,1.2-2.8,2.8v15.6c0,1.5,1.2,2.8,2.8,2.8h82.5c1.5,0,2.8-1.2,2.8-2.8V84.1
		C108,82.6,106.8,81.4,105.3,81.4z M102.5,97h-7.6V86.9h7.6V97z"/>
</g>
</svg>
