<?xml version="1.0" encoding="utf-8"?>
<!-- Generator: Adobe Illustrator 24.0.1, SVG Export Plug-In . SVG Version: 6.00 Build 0)  -->
<svg version="1.1" id="Capa_1" xmlns="http://www.w3.org/2000/svg" xmlns:xlink="http://www.w3.org/1999/xlink" x="0px" y="0px"
	 viewBox="0 0 128 128" style="enable-background:new 0 0 128 128;" xml:space="preserve">
<g>
	<path d="M60.3,61.7c0-0.2,0-0.4,0-0.5c0-10.8,0-21.7,0-32.5c0-0.3,0-0.6,0.1-0.9c2.8-0.5,45.9-6.8,46.6-6.9c0,0.2,0,0.3,0,0.5
		c0.1,8.3,0,39.8-0.1,40.5c-0.1,0-0.2,0-0.4,0c-0.8,0-1.6,0-2.4,0c-14.3,0.1-28.6,0.1-43,0.2c-0.3,0-0.6,0-0.9,0
		C60.3,61.9,60.3,61.8,60.3,61.7z M106.9,66.4c-0.2-0.1-0.5-0.1-0.7-0.1c-3.1,0-6.3-0.1-9.4-0.1c-8.3,0-16.6-0.1-24.9-0.1
		c-3.6,0-7.2,0-10.9-0.1c-0.2,0-0.5-0.1-0.7,0.1c-0.1,0.3-0.1,0.5-0.1,0.8c0,10.9,0,21.9,0,32.8c0,0.1,0,0.3,0,0.4
		c0,0.1,0,0.3,0.1,0.4c15.5,2.2,30.9,4.3,46.4,6.5c0.1,0,0.1,0,0.2,0c0-0.1,0-0.2,0-0.3c0-13.4,0-26.8,0-40.3
		C107,66.5,106.9,66.5,106.9,66.4z M55.9,66.1c-11.6-0.1-23.1-0.1-34.7-0.1c-0.1,0-0.1,0-0.2,0.1c0,0.1,0,0.2-0.1,0.3
		c-0.1,1.8,0,28.1,0.1,28.7c11.6,1.6,23.2,3.3,34.8,4.9c0.1,0,0.2,0,0.3,0c0-0.1,0.1-0.1,0.1-0.2c0-11.1,0-22.2,0-33.4
		c0-0.1,0-0.1-0.1-0.2C56,66.2,56,66.1,55.9,66.1z M56,28.4c-11.4,1.7-22.8,3.3-34.1,5c-0.3,0-0.5,0.1-0.8,0.2c0,0.2,0,0.4,0,0.5
		c-0.1,6.7,0,27.5,0.1,28.2c0.3,0,0.5,0,0.8,0c10.9,0,21.7-0.1,32.6-0.1c0.4,0,0.9,0,1.3,0c0.1,0,0.3-0.1,0.5-0.1
		c0-11.2,0-22.3,0-33.4c0-0.1,0-0.2,0-0.2C56.1,28.4,56,28.4,56,28.4z"/>
</g>
</svg>
